<svg width="33" height="26" viewBox="0 0 33 26" fill="none" xmlns="http://www.w3.org/2000/svg">
<path d="M0.0956549 6.61214C0.143482 6.18967 0.167396 5.60378 0.167396 4.85449C0.167396 3.42763 0.111597 1.80947 0 0C1.55439 0.0478274 4.22476 0.0717412 8.0111 0.0717412C11.7815 0.0717412 14.4399 0.0478274 15.9863 0C15.8747 1.80947 15.8189 3.42763 15.8189 4.85449C15.8189 5.60378 15.8428 6.18967 15.8907 6.61214H15.3287C14.7946 4.46788 14.1011 2.92545 13.2482 1.98484C12.4033 1.03626 11.4905 0.561972 10.5101 0.561972H10.4862V14.5754C10.4862 15.2609 10.5539 15.7591 10.6894 16.07C10.8329 16.3809 11.088 16.5882 11.4547 16.6918C11.8214 16.7954 12.4033 16.8472 13.2004 16.8472V17.3375C10.9047 17.2896 9.11511 17.2657 7.83174 17.2657C6.67591 17.2657 4.99797 17.2896 2.79791 17.3375V16.8472C3.59503 16.8472 4.17693 16.7954 4.54361 16.6918C4.91028 16.5882 5.16138 16.3809 5.29689 16.07C5.44037 15.7591 5.51211 15.2609 5.51211 14.5754V0.561972H5.4882C4.49179 0.561972 3.57112 1.03228 2.72616 1.97288C1.88918 2.90552 1.19967 4.45194 0.657627 6.61214H0.0956549Z" fill="white"/>
<path d="M16.4209 14.7747C16.4687 14.3523 16.4926 13.7664 16.4926 13.0171C16.4926 11.5902 16.4368 9.97207 16.3252 8.1626C17.8796 8.21043 20.55 8.23434 24.3363 8.23434C28.1067 8.23434 30.7651 8.21043 32.3115 8.1626C32.1999 9.97207 32.1441 11.5902 32.1441 13.0171C32.1441 13.7664 32.168 14.3523 32.2159 14.7747H31.6539C31.1198 12.6305 30.4263 11.088 29.5734 10.1474C28.7284 9.19886 27.8157 8.72457 26.8353 8.72457H26.8114V22.738C26.8114 23.4235 26.8791 23.9217 27.0146 24.2326C27.1581 24.5435 27.4132 24.7507 27.7799 24.8544C28.1465 24.958 28.7284 25.0098 29.5256 25.0098V25.5C27.2299 25.4522 25.4403 25.4283 24.1569 25.4283C23.0011 25.4283 21.3232 25.4522 19.1231 25.5V25.0098C19.9202 25.0098 20.5021 24.958 20.8688 24.8544C21.2355 24.7507 21.4866 24.5435 21.6221 24.2326C21.7656 23.9217 21.8373 23.4235 21.8373 22.738V8.72457H21.8134C20.817 8.72457 19.8963 9.19487 19.0514 10.1355C18.2144 11.0681 17.5249 12.6145 16.9828 14.7747H16.4209Z" fill="white"/>
</svg>
